<?xml version="1.0" encoding="iso-8859-1"?>
<!-- Generator: Adobe Illustrator 22.0.1, SVG Export Plug-In . SVG Version: 6.00 Build 0)  -->
<svg version="1.1" id="Layer_1" xmlns="http://www.w3.org/2000/svg" xmlns:xlink="http://www.w3.org/1999/xlink" x="0px" y="0px"
	 viewBox="0 0 952.447 208.978" style="enable-background:new 0 0 952.447 208.978;" xml:space="preserve">
<g>
	<g>
		<path style="fill:#512DA8;" d="M25.52,85.156v55.699h47.127c2.107,0,4.042,0.741,5.559,1.974l0.004-0.005l41.253,33.481V85.663
			l-47.354-39.83L25.52,85.156L25.52,85.156z M7.831,149.665V81.072h0.021c0.002-2.503,1.061-4.992,3.123-6.736l55.406-46.765
			l0.015,0.018c3.214-2.727,8.018-2.821,11.351-0.018l55.568,46.739c2.317,1.594,3.835,4.265,3.835,7.289v113.239h-0.027
			c0.001,1.955-0.646,3.925-1.976,5.563c-3.072,3.777-8.625,4.348-12.402,1.278l-53.233-43.205h-52.06
			c-0.255,0.023-0.515,0.037-0.776,0.037C11.792,158.512,7.831,154.55,7.831,149.665L7.831,149.665z"/>
		<polygon style="fill:#362C66;" points="99.349,68.746 92.407,62.907 103.455,49.194 117.809,61.268 99.349,68.746 		"/>
		<linearGradient id="SVGID_1_" gradientUnits="userSpaceOnUse" x1="78.5058" y1="95.979" x2="207.8252" y2="95.979">
			<stop  offset="0" style="stop-color:#35BDB2"/>
			<stop  offset="1" style="stop-color:#008D7F"/>
		</linearGradient>
		<path style="fill:url(#SVGID_1_);" d="M96.195,66.555v55.7h23.268v17.619H88.127c-0.256,0.023-0.515,0.035-0.776,0.035
			c-4.884,0-8.844-3.959-8.844-8.845V62.473h0.021c0.001-2.506,1.061-4.993,3.123-6.737L137.056,8.97l0.015,0.017
			c3.214-2.726,8.017-2.821,11.351-0.017l55.568,46.739c2.317,1.595,3.835,4.265,3.835,7.29v113.237h-0.028
			c0.001,1.958-0.645,3.927-1.976,5.563c-3.071,3.776-8.626,4.35-12.402,1.278l-53.233-43.203h-3.036v-17.619h6.171
			c2.107,0,4.042,0.739,5.559,1.974l0.003-0.004l41.253,33.48V67.063l-47.352-39.831L96.195,66.555L96.195,66.555z"/>
		<polygon style="fill:#007066;" points="137.15,122.255 140.583,122.255 138.25,139.874 137.15,139.874 		"/>
	</g>
	<g>
		<path style="fill:#FFFFFF;" d="M274.082,77.466c7.489-5.799,16.303-8.7,26.44-8.7c5.913,0,11.53,1.155,16.852,3.464
			c5.322,2.309,10.01,5.448,14.065,9.418c4.055,3.971,7.265,8.646,9.63,14.023c2.365,5.378,3.548,11.107,3.548,17.189v41.646
			c0,2.478-0.859,4.575-2.577,6.293c-1.718,1.718-3.788,2.576-6.208,2.576c-2.479,0-4.576-0.858-6.293-2.576
			c-1.718-1.718-2.576-3.815-2.576-6.293V112.86c0-3.603-0.705-7.012-2.112-10.221c-1.408-3.211-3.309-6.012-5.702-8.405
			c-2.394-2.393-5.195-4.294-8.405-5.702c-3.21-1.407-6.618-2.111-10.221-2.111c-3.661,0-7.083,0.689-10.264,2.069
			c-3.182,1.38-5.984,3.28-8.405,5.702c-2.422,2.422-4.323,5.236-5.702,8.447c-1.38,3.209-2.069,6.617-2.069,10.221v41.646
			c0,2.478-0.859,4.575-2.577,6.293c-1.718,1.718-3.788,2.576-6.208,2.576c-2.479,0-4.576-0.858-6.293-2.576
			c-1.718-1.718-2.576-3.815-2.576-6.293v-76.87c0-2.422,0.858-4.506,2.576-6.252c1.717-1.744,3.815-2.618,6.293-2.618
			c2.421,0,4.49,0.874,6.208,2.618C273.223,73.13,274.082,75.157,274.082,77.466z"/>
		<path style="fill:#FFFFFF;" d="M468.058,116.07c0,13.178-4.618,24.328-13.853,33.451c-9.349,9.236-20.499,13.854-33.451,13.854
			c-13.065,0-24.216-4.617-33.451-13.854c-9.236-9.235-13.854-20.386-13.854-33.451c0-13.064,4.617-24.215,13.854-33.451
			c9.235-9.235,20.386-13.854,33.451-13.854c12.952,0,24.103,4.618,33.451,13.854c4.617,4.618,8.067,9.714,10.347,15.29
			C466.833,103.483,468.001,109.538,468.058,116.07z M420.753,86.421c-4.168,0-8.054,0.789-11.657,2.365
			c-3.604,1.576-6.73,3.703-9.376,6.377c-2.647,2.676-4.745,5.815-6.293,9.419c-1.549,3.604-2.323,7.434-2.323,11.488
			c0,4.055,0.773,7.885,2.323,11.488c1.548,3.604,3.646,6.744,6.293,9.419c2.647,2.675,5.772,4.802,9.376,6.378
			c3.604,1.577,7.489,2.365,11.657,2.365c4.11,0,7.968-0.788,11.573-2.365c3.603-1.576,6.743-3.717,9.418-6.42
			c2.674-2.703,4.786-5.843,6.336-9.419c1.548-3.576,2.323-7.392,2.323-11.446c0-4.055-0.775-7.869-2.323-11.446
			c-1.549-3.575-3.661-6.715-6.336-9.418c-2.675-2.703-5.815-4.844-9.418-6.42C428.722,87.21,424.864,86.421,420.753,86.421z"/>
		<path style="fill:#FFFFFF;" d="M514.798,79.24c8.391-6.982,18.275-10.475,29.65-10.475c12.952,0,24.103,4.618,33.451,13.854
			c4.617,4.562,8.08,9.645,10.39,15.247c2.308,5.604,3.464,11.672,3.464,18.204c0,13.178-4.618,24.328-13.853,33.451
			c-9.349,9.236-20.499,13.854-33.451,13.854c-13.065,0-24.216-4.617-33.451-13.854c-9.236-9.235-13.854-20.386-13.854-33.451
			V37.004c0-2.534,0.83-4.631,2.492-6.293c1.66-1.661,3.759-2.492,6.293-2.492c2.477,0,4.575,0.832,6.293,2.492
			c1.718,1.662,2.576,3.759,2.576,6.293V79.24z M544.448,145.721c4.11,0,7.968-0.788,11.572-2.365
			c3.604-1.576,6.744-3.717,9.419-6.42c2.675-2.703,4.786-5.843,6.336-9.419c1.548-3.576,2.322-7.392,2.322-11.446
			c0-4.055-0.774-7.869-2.322-11.446c-1.55-3.575-3.661-6.715-6.336-9.418s-5.815-4.844-9.419-6.42
			c-3.604-1.576-7.462-2.365-11.572-2.365c-4.168,0-8.054,0.789-11.657,2.365c-3.604,1.576-6.731,3.703-9.377,6.377
			c-2.648,2.676-4.744,5.815-6.293,9.419c-1.549,3.604-2.323,7.434-2.323,11.488c0,4.055,0.775,7.885,2.323,11.488
			c1.549,3.604,3.646,6.744,6.293,9.419c2.646,2.675,5.772,4.802,9.377,6.378C536.394,144.933,540.28,145.721,544.448,145.721z"/>
		<path style="fill:#FFFFFF;" d="M638.492,79.24c8.391-6.982,18.274-10.475,29.65-10.475c12.952,0,24.103,4.618,33.451,13.854
			c4.617,4.562,8.08,9.645,10.39,15.247c2.309,5.604,3.464,11.672,3.464,18.204c0,13.178-4.618,24.328-13.854,33.451
			c-9.349,9.236-20.499,13.854-33.451,13.854c-13.065,0-24.216-4.617-33.451-13.854c-9.236-9.235-13.854-20.386-13.854-33.451
			V37.004c0-2.534,0.83-4.631,2.492-6.293c1.66-1.661,3.759-2.492,6.293-2.492c2.478,0,4.575,0.832,6.293,2.492
			c1.718,1.662,2.576,3.759,2.576,6.293V79.24z M668.143,145.721c4.11,0,7.968-0.788,11.572-2.365
			c3.604-1.576,6.744-3.717,9.419-6.42c2.675-2.703,4.786-5.843,6.336-9.419c1.548-3.576,2.322-7.392,2.322-11.446
			c0-4.055-0.774-7.869-2.322-11.446c-1.55-3.575-3.661-6.715-6.336-9.418s-5.815-4.844-9.419-6.42
			c-3.604-1.576-7.462-2.365-11.572-2.365c-4.168,0-8.054,0.789-11.657,2.365c-3.604,1.576-6.73,3.703-9.377,6.377
			c-2.648,2.676-4.744,5.815-6.293,9.419c-1.549,3.604-2.323,7.434-2.323,11.488c0,4.055,0.774,7.885,2.323,11.488
			c1.549,3.604,3.646,6.744,6.293,9.419c2.646,2.675,5.772,4.802,9.377,6.378C660.089,144.933,663.975,145.721,668.143,145.721z"/>
		<path style="fill:#FFFFFF;" d="M821.487,154.59v-1.69c-4.224,3.379-8.813,5.97-13.769,7.772
			c-4.956,1.803-10.25,2.703-15.881,2.703c-13.065,0-24.216-4.617-33.451-13.854c-9.236-9.235-13.854-20.386-13.854-33.451
			c0-13.064,4.617-24.215,13.854-33.451c9.235-9.235,20.386-13.854,33.451-13.854c12.952,0,24.102,4.618,33.451,13.854
			c9.235,9.236,13.854,20.387,13.854,33.451v38.52c0,2.422-0.859,4.491-2.576,6.209c-1.719,1.718-3.788,2.576-6.209,2.576
			c-2.478,0-4.576-0.858-6.293-2.576C822.346,159.081,821.487,157.012,821.487,154.59z M791.838,86.421
			c-4.168,0-8.054,0.789-11.657,2.365c-3.604,1.576-6.73,3.703-9.377,6.377c-2.648,2.676-4.744,5.815-6.293,9.419
			c-1.549,3.604-2.323,7.434-2.323,11.488c0,4.055,0.774,7.885,2.323,11.488c1.549,3.604,3.646,6.744,6.293,9.419
			c2.646,2.675,5.772,4.802,9.377,6.378c3.604,1.577,7.489,2.365,11.657,2.365c4.11,0,7.968-0.788,11.572-2.365
			c3.604-1.576,6.744-3.717,9.419-6.42c2.675-2.703,4.786-5.843,6.336-9.419c1.548-3.576,2.322-7.392,2.322-11.446
			c0-4.055-0.774-7.869-2.322-11.446c-1.55-3.575-3.661-6.715-6.336-9.418s-5.815-4.844-9.419-6.42
			C799.806,87.21,795.948,86.421,791.838,86.421z"/>
		<path style="fill:#FFFFFF;" d="M885.461,118.351c-5.294-2.027-9.011-4.109-11.15-6.25h0.084c-4.28-4.336-6.42-9.433-6.42-15.29
			c0-4.279,1.141-8.151,3.422-11.614c2.28-3.464,5.25-6.406,8.911-8.828c3.66-2.421,7.785-4.293,12.376-5.617
			c4.589-1.322,9.192-1.985,13.81-1.985c14.078,0,26.158,5.659,36.239,16.979c1.183,1.465,1.773,3.238,1.773,5.321
			c0,2.534-0.831,4.633-2.491,6.294c-1.662,1.661-3.76,2.491-6.294,2.491c-1.803,0-3.336-0.507-4.604-1.521
			c-1.267-1.014-2.492-2.111-3.675-3.295c-5.744-5.744-12.727-8.615-20.949-8.615c-8.109,0-14.586,2.478-19.429,7.434
			c-0.901,0.9-1.352,2.141-1.352,3.717c0,1.576,0.731,2.646,2.196,3.209l39.533,13.01c5.519,2.141,9.235,4.223,11.15,6.25h-0.084
			c4.279,4.338,6.42,9.434,6.42,15.29c0,4.337-1.141,8.223-3.421,11.657c-2.281,3.436-5.252,6.378-8.912,8.827
			c-3.661,2.45-7.771,4.323-12.333,5.618c-4.562,1.296-9.152,1.942-13.77,1.942c-14.191,0-26.271-5.603-36.238-16.809
			c-1.239-1.633-1.858-3.464-1.858-5.491c0-2.534,0.83-4.632,2.492-6.293c1.66-1.661,3.759-2.492,6.293-2.492
			c1.858,0,3.435,0.549,4.73,1.648c1.295,1.098,2.477,2.154,3.548,3.168c5.744,5.744,12.755,8.616,21.033,8.616
			c8.053,0,14.529-2.534,19.429-7.603c0.845-0.957,1.268-2.112,1.268-3.464c0-1.576-0.761-2.674-2.281-3.294L885.461,118.351z"/>
	</g>
</g>
</svg>
